<svg width="17" height="17" viewBox="0 0 17 17" fill="none" xmlns="http://www.w3.org/2000/svg">
<path fill-rule="evenodd" clip-rule="evenodd" d="M0.281611 8.50098C-0.118389 3.30098 1.44828 1.00098 2.28161 0.500977L6.78162 0.000976562L13.7816 0.500977L15.2816 1.50098L16.2816 3.50098V8.00098V11.501L15.7816 14.501L14.7816 15.501L12.2816 16.501H9.78162L4.78162 16.001C3.94828 16.001 2.18161 15.901 1.78162 15.501C1.7459 15.4653 1.71019 15.4321 1.67447 15.3989C1.21019 14.9678 0.745896 14.5367 0.281611 8.50098ZM8.28163 3.50098C5.79588 3.50098 3.78174 5.51534 3.78174 8.00087C3.78174 10.4855 5.79588 12.5012 8.28163 12.5012C10.7667 12.5012 12.7815 10.4855 12.7815 8.00087C12.7815 5.51534 10.7667 3.50098 8.28163 3.50098ZM8.28163 11.0012C6.62497 11.0012 5.28177 9.65796 5.28177 8.00087C5.28177 6.34377 6.62497 5.00101 8.28163 5.00101C9.93828 5.00101 11.2815 6.34377 11.2815 8.00087C11.2815 9.65796 9.93828 11.0012 8.28163 11.0012ZM14.2822 3.12546C14.2822 3.74677 13.7785 4.25043 13.1572 4.25043C12.5359 4.25043 12.0322 3.74677 12.0322 3.12546C12.0322 2.50416 12.5359 2.00049 13.1572 2.00049C13.7785 2.00049 14.2822 2.50416 14.2822 3.12546Z" fill="white"/>
</svg>
